<?xml version="1.0" encoding="utf-8"?>
<!-- Generator: Adobe Illustrator 23.0.5, SVG Export Plug-In . SVG Version: 6.00 Build 0)  -->
<svg version="1.1" id="Layer_1" xmlns="http://www.w3.org/2000/svg" xmlns:xlink="http://www.w3.org/1999/xlink" x="0px" y="0px"
	 viewBox="0 0 100 100" style="enable-background:new 0 0 100 100;" xml:space="preserve">
<style type="text/css">
	.st0{fill:#1D2A38;}
	.st1{fill:#F27146;}
</style>
<g>
	<polygon class="st0" points="82.79,47.92 82.79,47.96 82.76,47.93 	"/>
	<g>
		<path class="st0" d="M67.94,71.15l14.85-9.42V47.96l-0.03-0.03l-29.05-18.6v13.82l14.86,9.42l-14.97,9.57v13.69l-0.24,0.15
			L82.9,94.52v-13.8L67.94,71.15z M57.15,40.96v-4.8l22.29,13.91l-3.94,2.52L57.15,40.96z"/>
	</g>
</g>
<polygon class="st1" points="47.37,24.81 29.21,36.42 47.24,47.84 47.24,64.62 44.73,63.01 11.84,41.93 11.51,30.56 47.37,8.07 "/>
<g>
	<rect x="51.15" y="8.63" class="st1" width="2.2" height="2.47"/>
	<rect x="55.38" y="12.05" class="st1" width="3.39" height="3.8"/>
</g>
<g>
	<rect x="41.3" y="71.73" class="st0" width="2.2" height="2.47"/>
	<rect x="45.53" y="66.99" class="st0" width="3.39" height="3.8"/>
</g>
</svg>
